<svg xmlns="http://www.w3.org/2000/svg" width="25.25" height="25.25" viewBox="0 0 25.25 25.25">
  <g id="Icon_ionic-ios-arrow-dropright" data-name="Icon ionic-ios-arrow-dropright" transform="translate(-3.375 -3.375)">
    <path id="パス_6" data-name="パス 6" d="M14.815,10.3a1.593,1.593,0,0,1,1.92,0l6.708,5.469a.959.959,0,0,1,.042,1.52l-6.609,5.389a1.588,1.588,0,0,1-1.92.006.963.963,0,0,1,0-1.56l5.618-4.635-5.759-4.635A.954.954,0,0,1,14.815,10.3Z" transform="translate(-2.227 -0.5)" fill="#003c8a"/>
    <path id="パス_7" data-name="パス 7" d="M3.375,16A12.625,12.625,0,1,0,16,3.375,12.623,12.623,0,0,0,3.375,16Zm1.942,0A10.678,10.678,0,0,1,23.551,8.449a10.678,10.678,0,1,1-15.1,15.1A10.591,10.591,0,0,1,5.317,16Z" transform="translate(0 0)" fill="#003c8a"/>
  </g>
</svg>
