<svg xmlns="http://www.w3.org/2000/svg" width="210.845" height="24.24" viewBox="0 0 210.845 24.24">
  <g id="ロゴ" transform="translate(-91.459 -31.112)">
    <path id="パス_29" data-name="パス 29" d="M6.984-16.416V-.672c0,.648.5.984,1.152.984S9.288-.024,9.288-.672V-16.416h5.448a.957.957,0,0,0,.912-1.032.972.972,0,0,0-.912-1.08H1.512A.972.972,0,0,0,.6-17.448a.947.947,0,0,0,.936,1.032ZM25.728-6.072c.744,0,1.2-.456,1.2-1.32v-.192c-.24-3.144-2.208-5.88-5.712-5.88-3.912,0-6.072,2.9-6.072,7.056S17.424.528,21.36.528A5.316,5.316,0,0,0,26.64-2.64a.74.74,0,0,0,.12-.432.915.915,0,0,0-.744-.84,1.869,1.869,0,0,0-.5-.1.943.943,0,0,0-.864.6,3.3,3.3,0,0,1-3.264,2.136c-2.592,0-4.056-1.848-4.1-4.8ZM17.352-7.824c.312-2.352,1.56-3.888,3.864-3.888,2.208,0,3.24,1.752,3.528,3.456v.12c0,.216-.1.312-.36.312ZM28.92-6.432C28.92-2.3,31.1.552,34.992.552c3.264,0,4.536-1.728,5.184-3.384a1.011,1.011,0,0,0,.1-.432A.87.87,0,0,0,39.5-4.08a1.253,1.253,0,0,0-.5-.1.9.9,0,0,0-.888.648A2.88,2.88,0,0,1,35.04-1.32c-2.544,0-3.888-1.992-3.888-5.136,0-3.048,1.368-5.16,3.864-5.16a2.865,2.865,0,0,1,3,2.16.837.837,0,0,0,.84.552,2,2,0,0,0,.528-.072,1,1,0,0,0,.72-.888,1.064,1.064,0,0,0-.072-.36,4.943,4.943,0,0,0-5.064-3.264C31.032-13.488,28.92-10.536,28.92-6.432ZM53.9-8.784c0-2.952-1.536-4.68-4.392-4.68a4.693,4.693,0,0,0-4.632,2.976,12.032,12.032,0,0,0,.144-1.224v-6.024c0-.648-.408-.936-1.032-.936-.672,0-1.128.312-1.128.936V-.648c0,.648.456.96,1.128.96a.9.9,0,0,0,1.032-.96v-6.72a3.82,3.82,0,0,1,.864-2.448A3.863,3.863,0,0,1,49.08-11.5c1.8,0,2.64,1.128,2.64,3.168v7.68c0,.648.432.96,1.08.96.624,0,1.1-.312,1.1-.96Zm19.2-10.1c-4.992,0-8.28,3.864-8.28,9.7,0,5.976,3.288,9.744,8.448,9.744A7.153,7.153,0,0,0,80.4-4.512a1.219,1.219,0,0,0,.072-.408,1.05,1.05,0,0,0-.84-.96,1.793,1.793,0,0,0-.48-.072,1.089,1.089,0,0,0-1.08.744A4.794,4.794,0,0,1,73.2-1.56c-3.6,0-5.976-2.976-5.976-7.608C67.224-13.9,69.6-16.8,73.2-16.8a4.561,4.561,0,0,1,4.656,3.144,1.048,1.048,0,0,0,1.008.624,1.613,1.613,0,0,0,.576-.1,1.041,1.041,0,0,0,.744-.96,1.221,1.221,0,0,0-.1-.48C79.224-16.68,77.328-18.888,73.1-18.888Zm15.552,5.424c-3.888,0-6.216,2.808-6.216,6.96,0,4.272,2.3,7.056,6.264,7.056,3.744,0,6.048-2.88,6.048-7.056S92.5-13.464,88.656-13.464Zm.072,1.848c2.448,0,3.816,2.064,3.816,5.088,0,3.192-1.368,5.232-3.984,5.232-2.472,0-3.912-2.088-3.912-5.136C84.648-9.624,86.136-11.616,88.728-11.616ZM97.872-.648c0,.648.456.96,1.128.96a.954.954,0,0,0,1.08-.96V-7.272a4.307,4.307,0,0,1,1.008-2.664,3.114,3.114,0,0,1,2.424-1.32,4.836,4.836,0,0,1,1.152.144.664.664,0,0,0,.216.024,1.026,1.026,0,0,0,.936-.936,2.673,2.673,0,0,0,.048-.408.791.791,0,0,0-.768-.864,4.206,4.206,0,0,0-.96-.12,4.068,4.068,0,0,0-.528.024,4.029,4.029,0,0,0-3.672,2.712,10.373,10.373,0,0,0,.144-1.128v-.528c0-.624-.48-.936-1.08-.936-.672,0-1.128.312-1.128.936ZM110.04-.864a6.968,6.968,0,0,0-.12-1.392A4.576,4.576,0,0,0,114.336.528c3.576,0,5.736-2.832,5.736-7.1s-2.04-6.888-5.64-6.888a4.611,4.611,0,0,0-4.488,2.832,8.764,8.764,0,0,0,.1-1.32v-.432c0-.6-.456-.888-1.056-.888-.672,0-1.08.312-1.08.936V4.416c0,.6.408.936,1.08.936.648,0,1.056-.336,1.056-.936Zm4.08-10.728c2.424,0,3.744,1.944,3.744,5.064,0,3.1-1.368,5.16-3.792,5.16-2.52,0-4.08-2.16-4.08-5.136C109.992-9.456,111.48-11.592,114.12-11.592Zm14.352-1.872c-3.888,0-6.216,2.808-6.216,6.96,0,4.272,2.3,7.056,6.264,7.056,3.744,0,6.048-2.88,6.048-7.056S132.312-13.464,128.472-13.464Zm.072,1.848c2.448,0,3.816,2.064,3.816,5.088,0,3.192-1.368,5.232-3.984,5.232-2.472,0-3.912-2.088-3.912-5.136C124.464-9.624,125.952-11.616,128.544-11.616ZM137.688-.648c0,.648.456.96,1.128.96a.954.954,0,0,0,1.08-.96V-7.272A4.307,4.307,0,0,1,140.9-9.936a3.114,3.114,0,0,1,2.424-1.32,4.836,4.836,0,0,1,1.152.144.664.664,0,0,0,.216.024,1.026,1.026,0,0,0,.936-.936,2.672,2.672,0,0,0,.048-.408.791.791,0,0,0-.768-.864,4.206,4.206,0,0,0-.96-.12,4.068,4.068,0,0,0-.528.024,4.029,4.029,0,0,0-3.672,2.712,10.375,10.375,0,0,0,.144-1.128v-.528c0-.624-.48-.936-1.08-.936-.672,0-1.128.312-1.128.936Zm18.144-7.68a19.524,19.524,0,0,0-5.136.552c-2.28.624-3.624,2.064-3.624,4.32,0,2.472,1.608,3.96,4.248,3.96a5.572,5.572,0,0,0,4.56-1.968,6.827,6.827,0,0,0,.144,1.2c.1.432.528.576,1.008.576h.216c.6-.048.96-.384.96-.768a.853.853,0,0,0-.048-.24,7.833,7.833,0,0,1-.264-2.112V-9.36c0-2.832-1.584-4.1-4.8-4.1a5.856,5.856,0,0,0-3.864,1.056,4.282,4.282,0,0,0-1.416,1.872,1.2,1.2,0,0,0-.048.288,1.01,1.01,0,0,0,.792.912,1.408,1.408,0,0,0,.552.1.918.918,0,0,0,.936-.624c.408-1.1,1.272-1.776,3.024-1.776,1.9,0,2.76.7,2.76,2.28Zm0,3.336a2.678,2.678,0,0,1-.624,1.944,4.521,4.521,0,0,1-3.528,1.7,2.137,2.137,0,0,1-2.4-2.088,2.438,2.438,0,0,1,1.464-2.376c.96-.48,2.28-.72,5.088-.792Zm7.056-8.136H161.04c-.6,0-.864.408-.864.96s.264.936.84.936h1.872V-3c0,2.52,1.44,3.5,3.408,3.5a4.971,4.971,0,0,0,2.376-.528.94.94,0,0,0,.5-.864,1.368,1.368,0,0,0-.1-.528.891.891,0,0,0-.792-.624.978.978,0,0,0-.432.12,2.6,2.6,0,0,1-1.416.408c-.888,0-1.392-.5-1.392-1.68v-8.04h3.072a.845.845,0,0,0,.888-.936.841.841,0,0,0-.888-.96h-3.072v-2.9a.955.955,0,0,0-1.08-.96c-.672,0-1.08.336-1.08.96ZM181.1-6.072c.744,0,1.2-.456,1.2-1.32v-.192c-.24-3.144-2.208-5.88-5.712-5.88-3.912,0-6.072,2.9-6.072,7.056S172.8.528,176.736.528a5.316,5.316,0,0,0,5.28-3.168.741.741,0,0,0,.12-.432.915.915,0,0,0-.744-.84,1.869,1.869,0,0,0-.5-.1.943.943,0,0,0-.864.6,3.3,3.3,0,0,1-3.264,2.136c-2.592,0-4.056-1.848-4.1-4.8Zm-8.376-1.752c.312-2.352,1.56-3.888,3.864-3.888,2.208,0,3.24,1.752,3.528,3.456v.12c0,.216-.1.312-.36.312Z" transform="translate(120 50)" fill="#fff"/>
    <path id="Icon_material-supervisor-account" data-name="Icon material-supervisor-account" d="M19.409,15.288a2.782,2.782,0,1,0-2.829-2.782A2.8,2.8,0,0,0,19.409,15.288Zm-8.487-1.113a3.338,3.338,0,1,0-3.395-3.338A3.353,3.353,0,0,0,10.922,14.176Zm8.487,3.338c-2.071,0-6.224,1.024-6.224,3.06v2.5H25.633v-2.5C25.633,18.537,21.48,17.514,19.409,17.514ZM10.922,16.4C8.285,16.4,3,17.7,3,20.3v2.782h7.922v-2.5c0-.946.373-2.6,2.682-3.861A14.127,14.127,0,0,0,10.922,16.4Z" transform="translate(88.459 25.45)" fill="#fff"/>
  </g>
</svg>
